<svg width="183" height="88" viewBox="0 0 183 88" fill="none" xmlns="http://www.w3.org/2000/svg">
<g filter="url(#filter0_d)">
<rect x="16" y="16" width="135" height="40" rx="15" fill="#FBB829"/>
</g>
<path d="M43.48 36.32C43.48 35.2 43.704 34.2027 44.152 33.328C44.6107 32.4533 45.2613 31.776 46.104 31.296C46.9467 30.8053 47.9387 30.56 49.08 30.56C50.0613 30.56 50.936 30.7467 51.704 31.12C52.4827 31.4827 53.112 32 53.592 32.672C54.0827 33.344 54.408 34.128 54.568 35.024H50.824C50.6533 34.6507 50.408 34.3627 50.088 34.16C49.7787 33.9467 49.4213 33.84 49.016 33.84C48.4187 33.84 47.944 34.064 47.592 34.512C47.2507 34.96 47.08 35.5627 47.08 36.32C47.08 37.0773 47.2507 37.68 47.592 38.128C47.944 38.576 48.4187 38.8 49.016 38.8C49.4213 38.8 49.7787 38.6987 50.088 38.496C50.408 38.2827 50.6533 37.9893 50.824 37.616H54.568C54.408 38.512 54.0827 39.296 53.592 39.968C53.112 40.64 52.4827 41.1627 51.704 41.536C50.936 41.8987 50.0613 42.08 49.08 42.08C47.9387 42.08 46.9467 41.84 46.104 41.36C45.2613 40.8693 44.6107 40.1867 44.152 39.312C43.704 38.4373 43.48 37.44 43.48 36.32ZM61.3669 42.112C60.3002 42.112 59.3189 41.8613 58.4229 41.36C57.5375 40.8587 56.8335 40.1653 56.3109 39.28C55.7882 38.3947 55.5269 37.3973 55.5269 36.288C55.5269 35.1787 55.7882 34.1813 56.3109 33.296C56.8335 32.4107 57.5375 31.7227 58.4229 31.232C59.3189 30.7307 60.3002 30.48 61.3669 30.48C62.4335 30.48 63.4095 30.7307 64.2949 31.232C65.1802 31.7227 65.8789 32.4107 66.3909 33.296C66.9135 34.1813 67.1749 35.1787 67.1749 36.288C67.1749 37.3973 66.9135 38.3947 66.3909 39.28C65.8789 40.1653 65.1749 40.8587 64.2789 41.36C63.3935 41.8613 62.4229 42.112 61.3669 42.112ZM61.3669 38.8C62.0709 38.8 62.6149 38.576 62.9989 38.128C63.3829 37.6693 63.5749 37.056 63.5749 36.288C63.5749 35.5093 63.3829 34.896 62.9989 34.448C62.6149 33.9893 62.0709 33.76 61.3669 33.76C60.6522 33.76 60.1029 33.9893 59.7189 34.448C59.3349 34.896 59.1429 35.5093 59.1429 36.288C59.1429 37.056 59.3349 37.6693 59.7189 38.128C60.1029 38.576 60.6522 38.8 61.3669 38.8ZM79.3203 42H75.7683L72.0083 36.304V42H68.4563V30.672H72.0083L75.7683 36.464V30.672H79.3203V42ZM91.789 42H88.237L84.477 36.304V42H80.925V30.672H84.477L88.237 36.464V30.672H91.789V42ZM96.9458 33.504V34.896H100.466V37.568H96.9458V39.168H100.946V42H93.3938V30.672H100.946V33.504H96.9458ZM101.964 36.32C101.964 35.2 102.188 34.2027 102.636 33.328C103.095 32.4533 103.746 31.776 104.588 31.296C105.431 30.8053 106.423 30.56 107.564 30.56C108.546 30.56 109.42 30.7467 110.188 31.12C110.967 31.4827 111.596 32 112.076 32.672C112.567 33.344 112.892 34.128 113.052 35.024H109.308C109.138 34.6507 108.892 34.3627 108.572 34.16C108.263 33.9467 107.906 33.84 107.5 33.84C106.903 33.84 106.428 34.064 106.076 34.512C105.735 34.96 105.564 35.5627 105.564 36.32C105.564 37.0773 105.735 37.68 106.076 38.128C106.428 38.576 106.903 38.8 107.5 38.8C107.906 38.8 108.263 38.6987 108.572 38.496C108.892 38.2827 109.138 37.9893 109.308 37.616H113.052C112.892 38.512 112.567 39.296 112.076 39.968C111.596 40.64 110.967 41.1627 110.188 41.536C109.42 41.8987 108.546 42.08 107.564 42.08C106.423 42.08 105.431 41.84 104.588 41.36C103.746 40.8693 103.095 40.1867 102.636 39.312C102.188 38.4373 101.964 37.44 101.964 36.32ZM123.227 30.672V33.488H120.219V42H116.667V33.488H113.691V30.672H123.227Z" fill="white"/>
<defs>
<filter id="filter0_d" x="0" y="0" width="183" height="88" filterUnits="userSpaceOnUse" color-interpolation-filters="sRGB">
<feFlood flood-opacity="0" result="BackgroundImageFix"/>
<feColorMatrix in="SourceAlpha" type="matrix" values="0 0 0 0 0 0 0 0 0 0 0 0 0 0 0 0 0 0 127 0" result="hardAlpha"/>
<feOffset dx="8" dy="8"/>
<feGaussianBlur stdDeviation="12"/>
<feComposite in2="hardAlpha" operator="out"/>
<feColorMatrix type="matrix" values="0 0 0 0 0.984314 0 0 0 0 0.721569 0 0 0 0 0.160784 0 0 0 0.25 0"/>
<feBlend mode="normal" in2="BackgroundImageFix" result="effect1_dropShadow"/>
<feBlend mode="normal" in="SourceGraphic" in2="effect1_dropShadow" result="shape"/>
</filter>
</defs>
</svg>
