<svg width="30" height="30" viewBox="0 0 30 30" fill="none" xmlns="http://www.w3.org/2000/svg">
<path d="M30 15C30 23.284 23.282 30 15 30C6.714 30 0 23.284 0 15C0 6.716 6.714 0 15 0C23.282 0 30 6.716 30 15Z" fill="#40C0FF"/>
<path d="M21.0021 11.89C21.1981 16.218 17.9681 21.046 12.2561 21.046C10.5181 21.046 8.90009 20.536 7.53809 19.662C9.17009 19.854 10.8001 19.402 12.0941 18.388C10.7461 18.362 9.61009 17.474 9.21809 16.25C9.70009 16.342 10.1761 16.316 10.6081 16.198C9.12808 15.9 8.10609 14.566 8.14009 13.142C8.55609 13.372 9.03008 13.51 9.53408 13.526C8.16408 12.61 7.77608 10.8 8.58208 9.41802C10.1001 11.28 12.3681 12.504 14.9241 12.632C14.4761 10.708 15.9361 8.854 17.9241 8.854C18.8081 8.854 19.6081 9.22803 20.1701 9.82603C20.8701 9.68803 21.5281 9.43203 22.1241 9.08003C21.8941 9.79803 21.4061 10.402 20.7701 10.782C21.3921 10.708 21.9861 10.542 22.5381 10.298C22.1261 10.914 21.6041 11.456 21.0021 11.89Z" fill="white"/>
</svg>
